# xmcd CD database file
#
# Track frame offsets:
#	150
#	17561
#	37205
#	53440
#	70183
#	92083
#	111537
#	132723
#	148984
#	168021
#	184733
#	203777
#
# Disc length: 3094 seconds
#
# Revision: 0
# Processed by: cddbd v1.5.2PL0 Copyright (c) Steve Scherf et al.
# Submitted via: CDex 1.75
#
DISCID=b00c140c
DTITLE=Jazz A La Mode Trio - Less Is More
DYEAR=2013
DGENRE=Jazz
TTITLE0=Money In The Pocket
TTITLE1=Bus Ride
TTITLE2=Mambo Inn 
TTITLE3=This I Dig Of You
TTITLE4=Less is More
TTITLE5=Fire Eater
TTITLE6=Funkallero
TTITLE7=Inconvenience
TTITLE8=Venice Blues
TTITLE9=Driving into The Night
TTITLE10=Alligator Boogaloo
TTITLE11=A La Mode
EXTD=YEAR: 2013
EXTT0=
EXTT1=
EXTT2=
EXTT3=
EXTT4=
EXTT5=
EXTT6=
EXTT7=
EXTT8=
EXTT9=
EXTT10=
EXTT11=
PLAYORDER=
